<svg xmlns="http://www.w3.org/2000/svg" viewBox="0 0 24 24" shape-rendering="crispEdges">
  <rect width="24" height="24" fill="none"/>
  <rect x="5" y="3" width="14" height="2" fill="#0F172A"/>
  <rect x="4" y="5" width="16" height="15" fill="#0F172A"/>
  <rect x="6" y="7" width="12" height="9" fill="#F8FAFC"/>
  <rect x="7" y="8" width="3" height="2" fill="#DBEAFE"/>
  <rect x="11" y="8" width="2" height="2" fill="#FEE2E2"/>
  <rect x="14" y="8" width="3" height="2" fill="#DCFCE7"/>
  <rect x="7" y="11" width="2" height="2" fill="#FCE7F3"/>
  <rect x="10" y="11" width="4" height="2" fill="#E0E7FF"/>
  <rect x="15" y="11" width="2" height="2" fill="#FFEDD5"/>
  <rect x="8" y="14" width="2" height="1" fill="#2563EB"/>
  <rect x="13" y="14" width="2" height="1" fill="#FF4D4D"/>
  <rect x="9" y="17" width="6" height="1" fill="#F8FAFC"/>
  <rect x="7" y="20" width="3" height="1" fill="#FF4D4D"/>
  <rect x="14" y="20" width="3" height="1" fill="#2563EB"/>
  <rect x="3" y="9" width="1" height="5" fill="#FF4D4D"/>
  <rect x="20" y="9" width="1" height="5" fill="#2563EB"/>
</svg>
